<svg width="20" height="20" viewBox="0 0 20 20" fill="none" xmlns="http://www.w3.org/2000/svg">
<g clip-path="url(#clip0_3_23)">
<path d="M18.9863 0.0212383L11.1974 6.26004L12.6381 2.57911L18.9863 0.0212383Z" fill="#E2761B" stroke="#E2761B" stroke-linecap="round" stroke-linejoin="round"/>
<path d="M1.00584 0.0212383L8.73205 6.31908L7.36191 2.57911L1.00584 0.0212383Z" fill="#E4761B" stroke="#E4761B" stroke-linecap="round" stroke-linejoin="round"/>
<path d="M16.1838 14.4829L14.1095 17.9106L18.5479 19.2274L19.824 14.5589L16.1838 14.4829Z" fill="#E4761B" stroke="#E4761B" stroke-linecap="round" stroke-linejoin="round"/>
<path d="M0.183914 14.5589L1.45206 19.2274L5.89055 17.9106L3.81623 14.4829L0.183914 14.5589Z" fill="#E4761B" stroke="#E4761B" stroke-linecap="round" stroke-linejoin="round"/>
<path d="M5.64007 8.69133L4.40305 10.7093L8.81003 10.9204L8.65368 5.81277L5.64007 8.69133Z" fill="#E4761B" stroke="#E4761B" stroke-linecap="round" stroke-linejoin="round"/>
<path d="M14.352 8.69133L11.2995 5.75373L11.1974 10.9204L15.597 10.7093L14.352 8.69133Z" fill="#E4761B" stroke="#E4761B" stroke-linecap="round" stroke-linejoin="round"/>
<path d="M5.89055 17.9106L8.53632 16.5174L6.25051 14.5924L5.89055 17.9106Z" fill="#E4761B" stroke="#E4761B" stroke-linecap="round" stroke-linejoin="round"/>
<path d="M11.4558 16.5174L14.1094 17.9106L13.7416 14.5924L11.4558 16.5174Z" fill="#E4761B" stroke="#E4761B" stroke-linecap="round" stroke-linejoin="round"/>
<path d="M14.1094 17.9106L11.4558 16.5174L11.6673 18.3834L11.6437 19.1683L14.1094 17.9106Z" fill="#D7C1B3" stroke="#D7C1B3" stroke-linecap="round" stroke-linejoin="round"/>
<path d="M5.89055 17.9106L8.35633 19.1683L8.34058 18.3834L8.53632 16.5174L5.89055 17.9106Z" fill="#D7C1B3" stroke="#D7C1B3" stroke-linecap="round" stroke-linejoin="round"/>
<path d="M8.39533 13.3602L6.1879 12.6594L7.7455 11.891L8.39533 13.3602Z" fill="#233447" stroke="#233447" stroke-linecap="round" stroke-linejoin="round"/>
<path d="M11.5968 13.3602L12.2466 11.891L13.8121 12.6594L11.5968 13.3602Z" fill="#233447" stroke="#233447" stroke-linecap="round" stroke-linejoin="round"/>
<path d="M5.89055 17.9106L6.26627 14.4829L3.81624 14.5589L5.89055 17.9106Z" fill="#CD6116" stroke="#CD6116" stroke-linecap="round" stroke-linejoin="round"/>
<path d="M13.7337 14.4829L14.1095 17.9106L16.1838 14.5589L13.7337 14.4829Z" fill="#CD6116" stroke="#CD6116" stroke-linecap="round" stroke-linejoin="round"/>
<path d="M15.597 9.94011L11.1974 10.1512L11.6047 12.591L12.2545 11.1218L13.82 11.8902L15.597 9.94011Z" fill="#CD6116" stroke="#CD6116" stroke-linecap="round" stroke-linejoin="round"/>
<path d="M6.18789 11.8902L7.75338 11.1218L8.39533 12.591L8.81003 10.1512L4.40305 9.94011L6.18789 11.8902Z" fill="#CD6116" stroke="#CD6116" stroke-linecap="round" stroke-linejoin="round"/>
<path d="M4.40305 10.7093L6.25051 14.5924L6.18789 12.6594L4.40305 10.7093Z" fill="#E4751F" stroke="#E4751F" stroke-linecap="round" stroke-linejoin="round"/>
<path d="M13.82 12.6594L13.7416 14.5924L15.597 10.7093L13.82 12.6594Z" fill="#E4751F" stroke="#E4751F" stroke-linecap="round" stroke-linejoin="round"/>
<path d="M8.81003 10.9204L8.39532 13.3602L8.91203 16.2388L9.0294 12.4483L8.81003 10.9204Z" fill="#E4751F" stroke="#E4751F" stroke-linecap="round" stroke-linejoin="round"/>
<path d="M11.1975 10.9204L10.9864 12.4398L11.0801 16.2388L11.6047 13.3602L11.1975 10.9204Z" fill="#E4751F" stroke="#E4751F" stroke-linecap="round" stroke-linejoin="round"/>
<path d="M11.6047 13.3602L11.0801 16.2388L11.4558 16.5174L13.7416 14.5924L13.82 12.6594L11.6047 13.3602Z" fill="#F6851B" stroke="#F6851B" stroke-linecap="round" stroke-linejoin="round"/>
<path d="M6.1879 12.6594L6.25052 14.5924L8.53632 16.5174L8.91204 16.2388L8.39533 13.3602L6.1879 12.6594Z" fill="#F6851B" stroke="#F6851B" stroke-linecap="round" stroke-linejoin="round"/>
<path d="M11.6437 19.1683L11.6673 18.3834L11.4715 18.1973H8.52056L8.34058 18.3834L8.35633 19.1683L5.89055 17.9106L6.75147 18.6701L8.49693 19.9788H11.4952L13.2485 18.6701L14.1094 17.9106L11.6437 19.1683Z" fill="#C0AD9E" stroke="#C0AD9E" stroke-linecap="round" stroke-linejoin="round"/>
<path d="M11.4558 16.5174L11.0801 16.2388H8.91204L8.53633 16.5174L8.34059 18.3834L8.52057 18.1973H11.4716L11.6673 18.3834L11.4558 16.5174Z" fill="#161616" stroke="#161616" stroke-linecap="round" stroke-linejoin="round"/>
<path d="M19.3151 6.66525L19.9803 3.22092L18.9863 0.0212383L11.4558 6.04893L14.352 8.69133L18.4459 9.98301L19.3541 8.84339L18.9626 8.53969L19.5888 7.92337L19.1036 7.51816L19.7298 7.00293L19.3151 6.66525Z" fill="#763D16" stroke="#763D16" stroke-linecap="round" stroke-linejoin="round"/>
<path d="M0.0196991 3.22092L0.684882 6.66525L0.2623 7.00293L0.888494 7.51816L0.411169 7.92337L1.03736 8.53969L0.645893 8.84339L1.54619 9.98301L5.64008 8.69133L8.53633 6.04893L1.00586 0.0212383L0.0196991 3.22092Z" fill="#763D16" stroke="#763D16" stroke-linecap="round" stroke-linejoin="round"/>
<path d="M18.4459 9.98301L14.352 8.69133L15.597 10.7093L13.7416 14.5924L16.1838 14.5589H19.824L18.4459 9.98301Z" fill="#F6851B" stroke="#F6851B" stroke-linecap="round" stroke-linejoin="round"/>
<path d="M5.64007 8.69133L1.54618 9.98301L0.183914 14.5589H3.81623L6.25051 14.5924L4.40304 10.7093L5.64007 8.69133Z" fill="#F6851B" stroke="#F6851B" stroke-linecap="round" stroke-linejoin="round"/>
<path d="M11.1974 10.9204L11.4558 6.04893L12.646 2.57911H7.36191L8.53632 6.04893L8.81003 10.9204L8.90416 12.4568L8.91203 16.2388H11.0801L11.0958 12.4568L11.1974 10.9204Z" fill="#F6851B" stroke="#F6851B" stroke-linecap="round" stroke-linejoin="round"/>
</g>
<defs>
<clipPath id="clip0_3_23">
<rect width="20" height="20" fill="white"/>
</clipPath>
</defs>
</svg>
